<?xml version="1.0" encoding="utf-8"?>
<!-- Generator: Adobe Illustrator 28.0.0, SVG Export Plug-In . SVG Version: 6.00 Build 0)  -->
<svg version="1.1" id="Шар_1" xmlns="http://www.w3.org/2000/svg" xmlns:xlink="http://www.w3.org/1999/xlink" x="0px" y="0px"
	 viewBox="0 0 283.5 283.5" style="enable-background:new 0 0 283.5 283.5;" xml:space="preserve">
<style type="text/css">
	.st0{fill:#FFFFFF;}
	.st1{fill:#1C1C1C;}
</style>
<circle class="st0" cx="141.7" cy="141.7" r="141.7"/>
<g>
	<g>
		<g>
			<path class="st1" d="M141.6,38.5c-1.8,0-3.4,0.3-5.3,0.3c-2.6,0.3-5,1.1-7.4,1.8c-1.1,0.3-1.8,0.5-2.6,1.1
				c-10.5,4.7-18.4,13.9-21.3,24.9c-0.5,3.2-1.1,6.3-1.1,9.5v30.5c0,2.9,0.3,5.8,1.1,8.7c0.3,0.5,0.3,1.1,0.5,1.6l0,0
				c0.3,1.3,0.8,2.4,1.3,3.4c0.8,1.8,1.6,3.4,2.4,5c0.5,1.1,1.3,2.1,2.1,3.2c0,0.3,0.3,0.3,0.5,0.5c4.5,5.8,10.5,10.2,17.3,12.9l0,0
				l0,0c3.9,1.3,8.1,2.1,12.3,2.1c5.8,0,10.8,3.7,12.6,8.9l0,0c0.5,1.3,0.8,2.9,0.8,4.2v48.8c0,1.6-0.3,2.9-0.8,4.2
				c-1.1,2.6-2.9,5-5.3,6.8c-0.8,0.5-1.3,0.8-2.1,1.1c-1.6,0.8-3.4,1.1-5.3,1.1c-1.8,0-3.7-0.5-5.3-1.1c-0.8-0.3-1.6-0.8-2.1-1.1
				c-2.4-1.6-4.2-3.9-5.3-6.8l0,0c-0.5-1.3-0.8-2.9-0.8-4.2v-38.6H104v40.2c0,3.4,0.5,6.6,1.3,10c3.2,11.3,11.6,20.7,22.3,24.9
				c4.2,1.8,8.9,2.6,13.9,2.6s9.7-1.1,13.9-2.6c10.8-4.5,19.2-13.7,22.3-24.9c0.8-3.2,1.3-6.6,1.3-10v-56.7c0-2.9-0.3-5.8-1.1-8.7
				c-0.3-0.5-0.3-1.1-0.5-1.6l0,0c-0.3-1.3-0.8-2.4-1.3-3.4c-0.8-1.8-1.6-3.4-2.4-5c-0.5-1.1-1.3-2.1-2.1-3.2c0-0.3-0.3-0.3-0.5-0.5
				c-4.5-5.8-10.5-10.2-17.3-12.9l0,0l0,0c-3.9-1.3-8.1-2.1-12.3-2.1c-5.8,0-10.8-3.7-12.6-8.9l0,0c-0.5-1.3-0.8-2.9-0.8-4.2V77.7
				c0-1.6,0.3-2.9,0.8-4.2l0,0c0.8-2.6,2.4-4.7,4.5-6.3c2.4-1.8,5-2.6,8.1-2.6s5.8,1.1,8.1,2.6c0.5,0.3,1.1,0.8,1.3,1.1
				c1.3,1.3,2.6,3.2,3.2,5c0.5,1.3,0.8,2.9,0.8,4.2v12.9h24.4V76.1c0-3.2-0.5-6.3-1.1-9.2c-1.8-6.6-5.3-12.6-10-17.3
				c-3.2-3.2-7.1-5.8-11.3-7.9c-0.8-0.5-1.8-0.8-2.6-1.1c-2.4-0.8-4.7-1.3-7.4-1.8C145.3,38.8,143.4,38.5,141.6,38.5L141.6,38.5z"/>
		</g>
	</g>
</g>
</svg>
