<?xml version="1.0" encoding="utf-8"?>
<!-- Generator: Adobe Illustrator 28.0.0, SVG Export Plug-In . SVG Version: 6.00 Build 0)  -->
<svg version="1.1" id="Шар_1" xmlns="http://www.w3.org/2000/svg" xmlns:xlink="http://www.w3.org/1999/xlink" x="0px" y="0px"
	 viewBox="0 0 283.5 283.5" style="enable-background:new 0 0 283.5 283.5;" xml:space="preserve">
<style type="text/css">
	.st0{fill:#1C1C1C;}
</style>
<g>
	<g>
		<g>
			<path class="st0" d="M141.6,15.6c-2.2,0-4.2,0.3-6.4,0.3c-3.2,0.3-6.1,1.3-9,2.2c-1.3,0.3-2.2,0.6-3.2,1.3
				c-12.8,5.8-22.5,17-26,30.5c-0.6,3.9-1.3,7.7-1.3,11.6v37.2c0,3.5,0.3,7.1,1.3,10.6c0.3,0.6,0.3,1.3,0.6,1.9
				c0.3,1.6,1,2.9,1.6,4.2c1,2.2,1.9,4.2,2.9,6.1c0.6,1.3,1.6,2.6,2.6,3.9c0,0.3,0.3,0.3,0.6,0.6c5.5,7.1,12.8,12.5,21.2,15.7
				c4.8,1.6,9.9,2.6,15.1,2.6c7.1,0,13.2,4.5,15.4,10.9c0.6,1.6,1,3.5,1,5.1V220c0,1.9-0.3,3.5-1,5.1c-1.3,3.2-3.5,6.1-6.4,8.3
				c-1,0.6-1.6,1-2.6,1.3c-1.9,1-4.2,1.3-6.4,1.3c-2.2,0-4.5-0.6-6.4-1.3c-1-0.3-1.9-1-2.6-1.3c-2.9-1.9-5.1-4.8-6.4-8.3
				c-0.6-1.6-1-3.5-1-5.1v-47.2H95.7V222c0,4.2,0.6,8,1.6,12.2c3.9,13.8,14.1,25.4,27.3,30.5c5.1,2.2,10.9,3.2,17,3.2
				c6.1,0,11.9-1.3,17-3.2c13.2-5.5,23.4-16.7,27.3-30.5c1-3.9,1.6-8,1.6-12.2v-69.3c0-3.5-0.3-7.1-1.3-10.6
				c-0.3-0.6-0.3-1.3-0.6-1.9c-0.3-1.6-1-2.9-1.6-4.2c-1-2.2-1.9-4.2-2.9-6.1c-0.6-1.3-1.6-2.6-2.6-3.9c0-0.3-0.3-0.3-0.6-0.6
				c-5.5-7.1-12.8-12.5-21.2-15.7c-4.8-1.6-9.9-2.6-15.1-2.6c-7.1,0-13.2-4.5-15.4-10.9c-0.6-1.6-1-3.5-1-5.1V63.4
				c0-1.9,0.3-3.5,1-5.1c1-3.2,2.9-5.8,5.5-7.7c2.9-2.2,6.1-3.2,9.9-3.2c3.9,0,7.1,1.3,9.9,3.2c0.6,0.3,1.3,1,1.6,1.3
				c1.6,1.6,3.2,3.9,3.9,6.1c0.6,1.6,1,3.5,1,5.1v15.7h29.8V61.5c0-3.9-0.6-7.7-1.3-11.2c-2.2-8-6.4-15.4-12.2-21.2
				c-3.9-3.9-8.7-7.1-13.8-9.6c-1-0.6-2.2-1-3.2-1.3c-2.9-1-5.8-1.6-9-2.2C146.1,15.9,143.8,15.6,141.6,15.6L141.6,15.6z"/>
		</g>
	</g>
</g>
</svg>
